<?xml version="1.0" encoding="UTF-8" standalone="no"?>
<svg
   xmlns:dc="http://purl.org/dc/elements/1.1/"
   xmlns:cc="http://creativecommons.org/ns#"
   xmlns:rdf="http://www.w3.org/1999/02/22-rdf-syntax-ns#"
   xmlns:svg="http://www.w3.org/2000/svg"
   xmlns="http://www.w3.org/2000/svg"
   xmlns:sodipodi="http://sodipodi.sourceforge.net/DTD/sodipodi-0.dtd"
   xmlns:inkscape="http://www.inkscape.org/namespaces/inkscape"
   width="505.9375"
   height="129.28125"
   viewBox="0 0 404.74994 103.42498"
   id="svg3032"
   version="1.1"
   inkscape:version="0.48.4 r9939"
   sodipodi:docname="minimega.svg">
  <metadata
     id="metadata3039">
    <rdf:RDF>
      <cc:Work
         rdf:about="">
        <dc:format>image/svg+xml</dc:format>
        <dc:type
           rdf:resource="http://purl.org/dc/dcmitype/StillImage" />
      </cc:Work>
    </rdf:RDF>
  </metadata>
  <defs
     id="defs3037" />
  <sodipodi:namedview
     pagecolor="#ffffff"
     bordercolor="#666666"
     borderopacity="1"
     objecttolerance="10"
     gridtolerance="10"
     guidetolerance="10"
     inkscape:pageopacity="0"
     inkscape:pageshadow="2"
     inkscape:window-width="1916"
     inkscape:window-height="1041"
     id="namedview3035"
     showgrid="false"
     fit-margin-top="0"
     fit-margin-left="0"
     fit-margin-right="0"
     fit-margin-bottom="0"
     inkscape:zoom="1.0912498"
     inkscape:cx="277.71881"
     inkscape:cy="59.59369"
     inkscape:window-x="1920"
     inkscape:window-y="18"
     inkscape:window-maximized="0"
     inkscape:current-layer="svg3032" />
  <path
     id="Path"
     d="m 37.235015,78.75004 c 0,0 0,-40.7 0,-40.7 0,-17.18 -34.5100003,-16.63 -35.2900003,-0.68 0,0 0,41.38 0,41.38 0,0 -1.79000003,0 -1.79000003,0 0,0 0,-55 0,-55 0,0 1.79000003,0 1.79000003,0 0,0 0,7.94 0,7.94 6.98,-11.38 31.1800003,-10.92 36.1800003,1.67 5.88,-14.49 37.97,-13.05 37.97,4.69 0,0 0,40.7 0,40.7 0,0 -1.78,0 -1.78,0 0,0 0,-40.7 0,-40.7 0,-17.07 -35.3,-17.07 -35.3,0 0,0 0,40.7 0,40.7 0,0 -1.78,0 -1.78,0 z m 54.14,-55 c 0,0 0,55 0,55 0,0 -1.76,0 -1.76,0 0,0 0,-55 0,-55 0,0 1.76,0 1.76,0 z m 0,-23.00000036 c 0,0 0,10.50000036 0,10.50000036 0,0 -1.76,0 -1.76,0 0,0 0,-10.50000036 0,-10.50000036 0,0 1.76,0 1.76,0 z M 142.79501,78.75004 c 0,0 0,-40.7 0,-40.7 0,-17.18 -36.07,-16.74 -36.85,-0.68 0,0 0,41.38 0,41.38 0,0 -1.79,0 -1.79,0 0,0 0,-55 0,-55 0,0 1.79,0 1.79,0 0,0 0,7.94 0,7.94 7.87,-12.71 38.62,-10.82 38.62,6.36 0,0 0,40.7 0,40.7 0,0 -1.77,0 -1.77,0 z m 16.58,-55 c 0,0 0,55 0,55 0,0 -1.76,0 -1.76,0 0,0 0,-55 0,-55 0,0 1.76,0 1.76,0 z m 0,-23.00000036 c 0,0 0,10.50000036 0,10.50000036 0,0 -1.76,0 -1.76,0 0,0 0,-10.50000036 0,-10.50000036 0,0 1.76,0 1.76,0 z m 50.97,78.00000036 c -1.89,0 -3.65,0 -5.55,0 0,0 0,-40.55 0,-40.55 -0.45,-6.93 -6.89,-10.18 -13.32,-10.07 -7.1,0.21 -14.21,4.59 -14.21,11.54 0,0 0,39.08 0,39.08 0,0 -5.65,0 -5.65,0 0,0 0,-55 0,-55 0,0 5.65,0 5.65,0 0,0 0,5.88 0,5.88 4.11,-4.54 9.88,-5.88 15.1,-5.88 6.78,0 13.22,2.67 15.54,7.67 3,-5.22 9.99,-7.67 16.32,-7.67 9.65,0.12 19.31,5 19.31,15.45 0,0 0,39.55 0,39.55 0,0 -5.66,0 -5.66,0 0,0 0,-39.66 0,-39.66 0,-7.11 -6.87,-10.23 -13.76,-10.23 -6.66,0 -13.32,3.01 -13.77,9.67 0,0 0,40.22 0,40.22 z m 51.03,-25.64 c 4.78,-0.22 16.55,1 23.99,-2.55 9.43,-4.43 7.65,-17.76 -2.22,-20.53 -4.22,-1.11 -9,-1.11 -13.22,0 -4.77,1.33 -8.55,4.22 -8.55,8.55 0,0 0,14.53 0,14.53 z m 0,10.55 c 0,1.78 0.33,3.21 1.33,4.67 1.89,2.54 5.33,4.33 9.22,4.98 3,0.56 5.77,0.56 8.77,0 4.1,-0.54 7.89,-2.22 10.32,-5.65 0,0 4.77,2.89 4.77,2.89 -3.22,5.22 -8.66,7.43 -14.31,8.32 -3.33,0.55 -6.33,0.66 -9.66,0.11 -5.66,-0.89 -10.76,-3.45 -13.66,-7.32 -1.78,-2.57 -2.43,-5.33 -2.43,-8.44 0,0 0,-24.64 0,-24.64 0,-7.33 5.54,-11.89 12.76,-13.88 5.22,-1.45 10.88,-1.45 16.1,0 14.42,4.33 16.87,23.53 3.43,30.63 -7.76,4.22 -19.2,2.67 -26.64,2.67 0,0 0,5.66 0,5.66 z m 82.32,-9.29 c 0,0 0,-15.71 0,-15.71 0,-4.3 -3.79,-7.16 -8.55,-8.47 -2.11,-0.55 -4.35,-0.77 -6.67,-0.77 -2.33,0 -4.55,0.22 -6.55,0.77 -4.87,1.31 -8.55,4.17 -8.55,8.47 0,0 0,15.71 0,15.71 0,5.18 5.22,8.15 11.33,9.02 1.88,0.33 3.88,0.33 5.88,0.22 2,-0.22 3.89,-0.55 5.67,-1.09 4.22,-1.44 7.44,-4.18 7.44,-8.15 z m 2.76,-30.62 c 0,0 4.22,3.23 4.22,3.23 0,0 -3.88,4.08 -3.88,4.08 1.55,2.1 2.44,4.63 2.44,7.6 0,0 0,15.71 0,15.71 0,6.82 -4.78,11.22 -11.22,13.43 -2.22,0.65 -4.54,1.2 -6.98,1.31 -2.34,0.22 -4.78,0.11 -7.11,-0.22 0,0 -0.11,0 -0.11,0 -1,-0.11 -2,-0.33 -2.89,-0.55 -4.66,0 -5.98,5.07 -0.89,5.94 10.66,1.75 28.75,-3.41 28.75,13.19 0,0 0,1.98 0,1.98 0,6.82 -4.09,10.46 -10.42,12.21 -2.78,0.87 -6,1.09 -9,1.09 -3.11,0 -6.22,-0.22 -9.22,-0.98 -6.55,-1.43 -11.42,-4.96 -11.88,-11.88 -0.11,-1.75 -0.11,-3.62 0.46,-5.28 0,0 5.54,0 5.54,0 -0.45,1.55 -0.56,3.42 -0.32,4.95 0.32,3.85 3.43,5.72 7.31,6.92 5.11,1.55 11.65,1.22 15.54,-0.11 4.22,-1.42 6.33,-2.96 6.33,-6.92 0,0 0,-1.98 0,-1.98 0,-10.88 -15.76,-6.6 -24.53,-8.02 -8.22,-1.32 -10.11,-8.9 -5.33,-12.87 0.33,-0.33 0.79,-0.66 1.22,-0.88 -4.11,-2.42 -6.76,-6.26 -6.76,-11.33 0,0 0,-15.71 0,-15.71 0,-7.27 5.54,-11.91 12.65,-13.79 2.66,-0.78 5.44,-1.12 8.1,-1.12 2.78,0 5.54,0.34 8.11,1.12 2.21,0.55 4.21,1.44 6,2.55 0,0 3.87,-3.67 3.87,-3.67 z m 46.89,15.48 c 0,-1.67 -0.33,-3.21 -1.33,-4.54 -1.89,-2.67 -5.32,-4.33 -9.32,-5.11 -2.99,-0.56 -5.66,-0.44 -8.77,0 -4,0.67 -7.87,2.33 -10.2,5.76 0,0 -4.78,-2.98 -4.78,-2.98 6.54,-10.55 30.31,-11.11 37.62,-1 1.78,2.55 2.34,5.33 2.34,8.31 0,0 0,29.2 0,29.2 0,4.11 2.66,5.22 5.44,5.22 0,0 0,5 0,5 -4.67,0.33 -8.33,-1 -10,-4.45 -4.76,4.67 -10.76,5.78 -16.2,5.78 -2.66,0 -5.44,-0.45 -8.09,-1.11 -15.11,-4.11 -16.88,-22.31 -5.57,-29.75 6.89,-4.67 17.88,-5.33 28.86,-3.22 0,0 0,-7.11 0,-7.11 z m 0,12.22 c -8.2,-2.11 -18.97,-2.34 -25.29,2.11 -7.79,5.44 -7.11,17.42 3.54,20.42 2,0.55 4.22,0.77 6.55,0.77 5.78,0 15.2,-2.22 15.2,-9.31 0,0 0,-13.99 0,-13.99 z"
     inkscape:connector-curvature="0"
     style="fill:#ffffff;stroke:none" />
</svg>
